<?xml version="1.0" encoding="UTF-8"?>
<svg version="1.1" xmlns="http://www.w3.org/2000/svg" width="742" height="500">
<path d="M0 0 C244.86 0 489.72 0 742 0 C742 165 742 330 742 500 C497.14 500 252.28 500 0 500 C0 335 0 170 0 0 Z " fill="#0B0B0B" transform="translate(0,0)"/>
<path d="M0 0 C41.58 0 83.16 0 126 0 C126 7.59 126 15.18 126 23 C93.66 23 61.32 23 28 23 C42.70291751 45.20692958 42.70291751 45.20692958 58 67 C59.7918524 69.63537777 61.56452698 72.27390651 63.3125 74.9375 C68.37948235 82.59511995 73.5076264 90.20990545 78.66268921 97.80838013 C79.50471717 99.04956155 80.34637874 100.29099164 81.18765259 101.53268433 C81.99505527 102.72425814 82.80297009 103.9154851 83.61143494 105.1063385 C84.7410976 106.77081273 85.86839122 108.43689403 86.99560547 110.10302734 C88.64617401 112.48861155 90.35800248 114.78650563 92.12890625 117.08203125 C94 120 94 120 93.74232483 121.97557068 C92.49758764 125.37015263 90.38486006 128.24561714 88.37109375 131.22265625 C87.9031691 131.92337753 87.43524445 132.62409882 86.95314026 133.34605408 C85.95966697 134.83139378 84.96341367 136.31487727 83.96459961 137.79663086 C82.46182518 140.02640695 80.96745892 142.26161726 79.47460938 144.49804688 C74.68742867 151.64994582 69.81838931 158.7138933 64.71459961 165.64526367 C62.22188716 169.06861716 59.88581629 172.5854596 57.5625 176.125 C51.77200173 184.87956811 45.87637161 193.56105316 39.96313477 202.23291016 C39.27662842 203.24015137 38.59012207 204.24739258 37.8828125 205.28515625 C37.27840332 206.17082275 36.67399414 207.05648926 36.05126953 207.96899414 C33.34670433 211.96532561 30.67669935 215.98495097 28 220 C60.34 220 92.68 220 126 220 C126 227.59 126 235.18 126 243 C84.42 243 42.84 243 0 243 C0 216.45885223 0 216.45885223 7.41748047 207.00488281 C7.94903748 206.31285767 8.48059448 205.62083252 9.02825928 204.90783691 C9.57580872 204.19575073 10.12335815 203.48366455 10.6875 202.75 C11.81203882 201.20315556 12.93054372 199.65190933 14.04345703 198.09667969 C16.41541314 194.78971702 18.81076566 191.50166453 21.22119141 188.22265625 C27.2223444 179.99825444 32.84012659 171.51003925 38.49966431 163.0489502 C40.32171112 160.32953399 42.15256325 157.61630256 43.98706055 154.90527344 C46.80047868 150.7475088 49.59668522 146.57859646 52.38513184 142.40405273 C54.0192908 139.97128181 55.67347349 137.55296161 57.32910156 135.13476562 C58.35814467 133.60595502 59.38649849 132.07668015 60.4140625 130.546875 C61.13509659 129.51025726 61.13509659 129.51025726 61.87069702 128.45269775 C64.37752887 124.80890899 64.37752887 124.80890899 64.77592468 120.54588318 C63.96728304 117.89265252 62.97481023 116.05627991 61.41479492 113.77075195 C60.87300095 112.96833572 60.33120697 112.16591949 59.772995 111.33918762 C58.8856945 110.05173897 58.8856945 110.05173897 57.98046875 108.73828125 C57.36665848 107.83361618 56.75284821 106.92895111 56.12043762 105.99687195 C54.1504044 103.09681379 52.16930105 100.20452584 50.1875 97.3125 C48.89571846 95.41653724 47.60469519 93.52005761 46.31445312 91.62304688 C44.39540334 88.80159241 42.47538813 85.98084225 40.55093384 83.16307068 C36.58824712 77.35761694 32.68661445 71.51579174 28.81640625 65.6484375 C25.45710918 60.56047865 22.00156408 55.57933759 18.35112 50.69554138 C16.29643172 47.94282511 14.28112012 45.16240172 12.26806641 42.37915039 C11.25267535 40.99682725 10.21884657 39.62786764 9.16748047 38.27270508 C8.64686035 37.59812256 8.12624023 36.92354004 7.58984375 36.22851562 C7.12795654 35.64162964 6.66606934 35.05474365 6.19018555 34.45007324 C-2.55394568 21.17857523 0 18.82945578 0 0 Z " fill="#FAFAFA" transform="translate(306,31)"/>
<path d="M0 0 C2.89524917 2.13777119 5.52188134 4.39145404 8 7 C8.52207031 6.46890625 9.04414062 5.9378125 9.58203125 5.390625 C16.87579863 -1.6093479 23.86625096 -5.11069715 34.0625 -5.4375 C46.07264084 -4.9857567 53.82208564 -0.48010472 62.0703125 8 C68.01293773 17.23873719 68.56132097 27.03348612 68.390625 37.734375 C68.38314198 39.10727097 68.37745883 40.4801778 68.37347412 41.85308838 C68.35837928 45.42397839 68.31924335 48.99419209 68.2746582 52.56481934 C68.23335103 56.22541155 68.21538838 59.88611568 68.1953125 63.546875 C68.15272802 70.69821586 68.08251651 77.84899192 68 85 C59.75 85 51.5 85 43 85 C42.97421875 80.88273437 42.9484375 76.76546875 42.921875 72.5234375 C42.89017615 69.23040759 42.85452483 65.93747298 42.81620789 62.64451599 C42.77690504 59.1739607 42.74448917 55.70366039 42.72900391 52.23291016 C42.71089447 48.24609063 42.66092188 44.25997044 42.609375 40.2734375 C42.60814636 39.03572601 42.60691772 37.79801453 42.60565186 36.52279663 C42.46235499 27.96714732 42.46235499 27.96714732 38 21 C34.16286804 17.61429533 30.36598538 17.48708828 25.4375 17.6484375 C21.79203982 18.17422503 19.7089465 19.55534096 17 22 C14.32308559 25.73113283 13.61737307 28.32515197 13.56762695 32.8918457 C13.54783279 34.05267166 13.52803864 35.21349762 13.50764465 36.40950012 C13.50125473 37.65237289 13.49486481 38.89524567 13.48828125 40.17578125 C13.46135445 42.09622505 13.46135445 42.09622505 13.43388367 44.0554657 C13.38649616 47.44689853 13.35661466 50.83826536 13.33044434 54.22991943 C13.30058155 57.6957299 13.25407103 61.16131319 13.20898438 64.62695312 C13.12401054 71.41788432 13.05721783 78.20878051 13 85 C4.75 85 -3.5 85 -12 85 C-12.02578125 80.88273437 -12.0515625 76.76546875 -12.078125 72.5234375 C-12.10982385 69.23040759 -12.14547517 65.93747298 -12.18379211 62.64451599 C-12.22309496 59.1739607 -12.25551083 55.70366039 -12.27099609 52.23291016 C-12.28910553 48.24609063 -12.33907812 44.25997044 -12.390625 40.2734375 C-12.39185364 39.03572601 -12.39308228 37.79801453 -12.39434814 36.52279663 C-12.53764501 27.96714732 -12.53764501 27.96714732 -17 21 C-20.83643932 17.61490648 -24.63432308 17.48367103 -29.5625 17.65234375 C-33.24866644 18.17809505 -35.28983949 19.48814391 -38 22 C-42.0710573 27.83219095 -41.47580945 34.22207282 -41.51171875 41.0546875 C-41.52966995 42.31137238 -41.54762115 43.56805725 -41.56611633 44.86282349 C-41.61100911 48.18695624 -41.6433604 51.51072339 -41.66955566 54.83502197 C-41.69945334 58.23389922 -41.74595173 61.63254598 -41.79101562 65.03125 C-41.8759166 71.68741409 -41.9427422 78.34354303 -42 85 C-49.92 85 -57.84 85 -66 85 C-66 55.96 -66 26.92 -66 -3 C-58.74 -3 -51.48 -3 -44 -3 C-43.67 -0.03 -43.34 2.94 -43 6 C-42.34 5.0925 -41.68 4.185 -41 3.25 C-30.85640551 -8.97433182 -12.59656346 -6.50366048 0 0 Z " fill="#FAFAFA" transform="translate(630,374)"/>
<path d="M0 0 C10.30919931 6.46509109 17.94909288 15.19551256 21.42578125 27.1328125 C23.43267444 43.71990563 21.48590758 57.55152823 11.07421875 70.97265625 C3.43811641 79.45903123 -9.04487317 85.52039082 -20.44921875 86.1484375 C-36.09018093 86.46506317 -47.13149864 82.89480802 -59 72.375 C-68.57770919 61.46705342 -72.67617113 51.17945981 -72.5234375 36.578125 C-71.76365342 26.11481281 -67.87817988 17.8144693 -61.25 9.8125 C-60.74984375 9.17699219 -60.2496875 8.54148437 -59.734375 7.88671875 C-45.01986709 -8.87147082 -18.60623715 -10.19966442 0 0 Z " fill="#FBFBFB" transform="translate(383.25,375.1875)"/>
<path d="M0 0 C7.92 0 15.84 0 24 0 C24.495 20.295 24.495 20.295 25 41 C27.31 39.02 29.62 37.04 32 35 C40.26771338 30.72359653 49.53434754 30.80599736 58.4375 33.25 C67.8209078 36.49927066 74.64268048 43.16305023 79 52 C81.69668318 58.98049298 81.25327692 66.07951485 81.1953125 73.46484375 C81.19157708 74.8673126 81.18873261 76.26978407 81.18673706 77.67225647 C81.17914221 81.34326527 81.15952998 85.01411295 81.1373291 88.68505859 C81.11678072 92.43910544 81.10771621 96.19317861 81.09765625 99.94726562 C81.07627963 107.29825864 81.04113196 114.64908612 81 122 C72.75 122 64.5 122 56 122 C55.97421875 117.88273437 55.9484375 113.76546875 55.921875 109.5234375 C55.89017615 106.23040759 55.85452483 102.93747298 55.81620789 99.64451599 C55.77690504 96.1739607 55.74448917 92.70366039 55.72900391 89.23291016 C55.71089447 85.24609063 55.66092188 81.25997044 55.609375 77.2734375 C55.60814636 76.03572601 55.60691772 74.79801453 55.60565186 73.52279663 C55.47813849 64.95730022 55.47813849 64.95730022 51 58 C46.05659448 54.46899606 40.88047201 54.12988138 35 55 C29.86691209 57.61320839 26.8202092 60.53937241 25 66 C24.88390641 67.82465899 24.82343471 69.65307886 24.79467773 71.48120117 C24.77473251 72.60213669 24.75478729 73.7230722 24.73423767 74.87797546 C24.71752518 76.08742325 24.70081268 77.29687103 24.68359375 78.54296875 C24.66281265 79.78170242 24.64203156 81.0204361 24.62062073 82.29670715 C24.56628203 85.58625256 24.51604049 88.87582726 24.46777344 92.16546631 C24.41749354 95.52377814 24.36184139 98.88200046 24.30664062 102.24023438 C24.19946949 108.8267538 24.09819524 115.41334089 24 122 C16.08 122 8.16 122 0 122 C0 81.74 0 41.48 0 0 Z " fill="#FCFCFC" transform="translate(131,337)"/>
<path d="M0 0 C9.0021327 7.28744075 15.01151044 15.64258524 17.625 27.125 C17.86230935 30.06980873 17.86115336 32.9850092 17.8125 35.9375 C17.8115332 37.0812207 17.8115332 37.0812207 17.81054688 38.24804688 C17.7660251 43.8429498 17.7660251 43.8429498 16.625 46.125 C-3.835 46.125 -24.295 46.125 -45.375 46.125 C-40.79238331 57.24937717 -40.79238331 57.24937717 -32.375 62.125 C-26.52787555 64.02136469 -19.57535134 64.04514692 -13.9375 61.6875 C-13.091875 61.171875 -12.24625 60.65625 -11.375 60.125 C-10.385 59.795 -9.395 59.465 -8.375 59.125 C-7.16617904 57.12483534 -7.16617904 57.12483534 -6.375 55.125 C-1.66129244 55.77485095 2.20186444 57.64061392 6.4375 59.6875 C7.13037109 60.01685547 7.82324219 60.34621094 8.53710938 60.68554688 C10.23544948 61.49372251 11.93055769 62.30868377 13.625 63.125 C10.2515457 72.48309196 3.30920414 77.78289793 -5.375 82.125 C-6.03757812 82.46660156 -6.70015625 82.80820312 -7.3828125 83.16015625 C-16.73087199 87.10100486 -31.96760957 86.85612666 -41.375 83.125 C-53.91718438 77.26135165 -62.83616262 69.50508513 -67.75 56.3125 C-72.03425563 43.7018867 -71.78436588 30.35971283 -66.375 18.125 C-64.32913526 14.51435257 -62.01978528 11.31795659 -59.375 8.125 C-58.87484375 7.48949219 -58.3746875 6.85398437 -57.859375 6.19921875 C-42.92802144 -10.80593391 -18.27551276 -10.15306264 0 0 Z " fill="#FBFBFB" transform="translate(537.375,375.875)"/>
<path d="M0 0 C1.17755114 0.81788071 2.34577464 1.64951815 3.5 2.5 C4.36625 3.0775 5.2325 3.655 6.125 4.25 C13.68257309 11.40980609 18.37872436 20.99082355 18.77734375 31.390625 C18.84882989 36.10782771 18.79017104 40.7906667 18.5 45.5 C17.5 46.5 17.5 46.5 15.06394958 46.62025452 C13.98251175 46.61803391 12.90107391 46.61581329 11.78686523 46.61352539 C10.5656749 46.61344986 9.34448456 46.61337433 8.08628845 46.61329651 C6.74372314 46.60818911 5.40115825 46.60297311 4.05859375 46.59765625 C2.69238842 46.59579199 1.32618243 46.59436813 -0.0400238 46.59336853 C-3.64201695 46.58954394 -7.24397 46.57971417 -10.84594727 46.56866455 C-14.51903745 46.55844916 -18.19213409 46.55387064 -21.86523438 46.54882812 C-29.07684123 46.53809184 -36.288415 46.52101614 -43.5 46.5 C-43.05424475 47.76647489 -42.60092357 49.03028809 -42.14453125 50.29296875 C-41.76711792 51.34907349 -41.76711792 51.34907349 -41.38208008 52.42651367 C-39.55055041 56.73185038 -36.74460072 59.56654946 -33 62.375 C-26.19151145 64.56344275 -18.45204068 64.83146536 -11.875 61.75 C-9.07364222 60.0951895 -7.13920957 58.36861675 -5.5 55.5 C-0.78629244 56.14985095 3.07686444 58.01561392 7.3125 60.0625 C8.00537109 60.39185547 8.69824219 60.72121094 9.41210938 61.06054688 C11.11044948 61.86872251 12.80555769 62.68368377 14.5 63.5 C12.08297956 71.36351899 7.72948148 76.52000671 0.5 80.5 C-11.34703039 86.24975875 -25.5808252 87.95566115 -38.43359375 84.30859375 C-50.77559303 79.47911577 -59.14011238 71.97773549 -65.30859375 60.2734375 C-70.24774205 48.77574802 -71.05566879 32.30179793 -66.375 20.5625 C-64.98046875 17.8671875 -64.98046875 17.8671875 -63.5 15.5 C-62.81357422 14.39011719 -62.81357422 14.39011719 -62.11328125 13.2578125 C-48.11246597 -7.07213845 -21.22962075 -12.81713552 0 0 Z " fill="#FCFCFC" transform="translate(287.5,375.5)"/>
<path d="M0 0 C28.38 0 56.76 0 86 0 C86 7.26 86 14.52 86 22 C76.1 22 66.2 22 56 22 C56 54.34 56 86.68 56 120 C47.75 120 39.5 120 31 120 C31 87.66 31 55.32 31 22 C20.77 22 10.54 22 0 22 C0 14.74 0 7.48 0 0 Z " fill="#FDFDFD" transform="translate(40,339)"/>
<path d="M0 0 C0 6.93 0 13.86 0 21 C-2.97 21.12375 -2.97 21.12375 -6 21.25 C-13.26200228 21.81894904 -18.24935695 23.17697161 -23.375 28.4375 C-26.11411595 32.75687515 -27.24563407 36.3201123 -27.31884766 41.43286133 C-27.33871735 42.49358353 -27.35858704 43.55430573 -27.37905884 44.64717102 C-27.39061005 45.7806749 -27.40216125 46.91417877 -27.4140625 48.08203125 C-27.43342865 49.25134689 -27.4527948 50.42066254 -27.4727478 51.62541199 C-27.53245195 55.35436749 -27.57889297 59.08335401 -27.625 62.8125 C-27.66318815 65.3431123 -27.70224037 67.87371173 -27.7421875 70.40429688 C-27.83976966 76.60279697 -27.91941299 82.80116242 -28 89 C-35.92 89 -43.84 89 -52 89 C-52 59.96 -52 30.92 -52 1 C-44.41 1 -36.82 1 -29 1 C-28.67 4.3 -28.34 7.6 -28 11 C-27.21625 9.9275 -26.4325 8.855 -25.625 7.75 C-18.68842465 -0.24002722 -9.98509977 -0.46442325 0 0 Z " fill="#FCFCFC" transform="translate(466,370)"/>
<path d="M0 0 C5.4484117 5.29124598 8.20822858 9.94407887 8.38061523 17.72314453 C8.35910473 25.72692175 8.09254252 31.78401652 2.31640625 37.734375 C-3.94131384 43.38650928 -8.42648516 44.40106402 -16.8671875 44.25 C-22.02226538 43.83862221 -24.74072659 42.04939451 -28.625 38.8125 C-34.72236173 31.59194006 -35.78883841 25.12433581 -35.37890625 15.7890625 C-34.70871495 9.08714952 -32.54948638 5.23777868 -27.75 0.625 C-19.84731675 -5.53271709 -8.27790617 -5.64402693 0 0 Z " fill="#0C0C0C" transform="translate(372,395)"/>
<path d="M0 0 C3.91058094 2.31145862 6.75288341 4.74548977 8.4765625 9.0546875 C8.4765625 10.7046875 8.4765625 12.3546875 8.4765625 14.0546875 C-3.0734375 14.0546875 -14.6234375 14.0546875 -26.5234375 14.0546875 C-25.39158641 7.26358099 -25.39158641 7.26358099 -22.7109375 4.3046875 C-22.20949219 3.73234375 -21.70804688 3.16 -21.19140625 2.5703125 C-15.61852634 -2.49356901 -6.83902136 -2.56198633 0 0 Z " fill="#0D0D0D" transform="translate(271.5234375,389.9453125)"/>
<path d="M0 0 C4.46220682 2.11367692 7.33129996 4.84868882 10 9 C10.495 11.97 10.495 11.97 11 15 C-0.88 15 -12.76 15 -25 15 C-22.73130194 8.19390582 -22.73130194 8.19390582 -20.125 5.25 C-19.63257813 4.67765625 -19.14015625 4.1053125 -18.6328125 3.515625 C-13.38339486 -1.35704018 -6.76074892 -0.68196845 0 0 Z " fill="#0D0D0D" transform="translate(518,389)"/>
</svg>
